<svg width="138" height="27" viewBox="0 0 138 27" fill="none" xmlns="http://www.w3.org/2000/svg">
<path d="M26.7471 3H5V22.5609H26.7471V3Z" stroke="black" stroke-width="0.230128"/>
<path d="M6.89856 12.3203V3.05762H26.6896V18.8214L25.1938 20.3748H13.3997L6.89856 12.3203Z" fill="#73D2F0" stroke="black" stroke-width="0.230128"/>
<path d="M18.1173 15.5421C20.977 15.5421 23.2952 13.2238 23.2952 10.3642C23.2952 7.5045 20.977 5.18628 18.1173 5.18628C15.2576 5.18628 12.9394 7.5045 12.9394 10.3642C12.9394 13.2238 15.2576 15.5421 18.1173 15.5421Z" fill="#FFFAFA" stroke="black" stroke-width="0.230128"/>
<path d="M18.1173 11.8598C18.9435 11.8598 19.6132 11.1901 19.6132 10.364C19.6132 9.53787 18.9435 8.86816 18.1173 8.86816C17.2912 8.86816 16.6215 9.53787 16.6215 10.364C16.6215 11.1901 17.2912 11.8598 18.1173 11.8598Z" fill="#0D0D0D" stroke="black" stroke-width="0.230128"/>
<path d="M36.8485 10.447H38.3856C39.3835 10.447 40.0509 10.3358 40.3881 10.1133C40.7251 9.89082 40.8937 9.49642 40.8937 8.93008C40.8937 8.35701 40.7319 7.95923 40.4083 7.73674C40.0847 7.51425 39.4105 7.40301 38.3856 7.40301H36.8485V10.447ZM32.065 18.6487V3.7522H38.1936C39.5487 3.7522 40.6206 3.8331 41.4095 3.99491C42.2051 4.14997 42.8691 4.4028 43.4017 4.75339C44.0895 5.21859 44.6019 5.79503 44.939 6.48273C45.276 7.17041 45.4446 7.9862 45.4446 8.93008C45.4446 10.5954 44.9525 11.873 43.9681 12.7629C42.9837 13.6461 41.5645 14.0877 39.7105 14.0877H36.8485V18.6487H32.065ZM49.9357 11.9134H53.8291C53.7819 11.2325 53.5932 10.7235 53.2628 10.3864C52.9324 10.0425 52.4572 9.8706 51.8369 9.8706C51.2638 9.8706 50.8086 10.0526 50.4716 10.4167C50.1413 10.774 49.9626 11.2729 49.9357 11.9134ZM53.5965 15.3923H57.7834C57.48 16.5924 56.8125 17.5026 55.7809 18.1229C54.7561 18.7364 53.401 19.0432 51.7155 19.0432C49.8277 19.0432 48.3276 18.5207 47.2152 17.4757C46.1095 16.4239 45.5567 15.0114 45.5567 13.2382C45.5567 11.3909 46.123 9.93465 47.2557 8.86941C48.3883 7.79743 49.9289 7.26143 51.8774 7.26143C53.8325 7.26143 55.363 7.84461 56.4686 9.01099C57.5811 10.1706 58.1373 11.782 58.1373 13.845V14.108L49.9357 14.1181C49.9558 14.8193 50.1413 15.362 50.4919 15.7462C50.8424 16.1239 51.3312 16.3126 51.9583 16.3126C52.383 16.3126 52.7369 16.235 53.0201 16.08C53.3032 15.9183 53.4954 15.6889 53.5965 15.3923ZM59.1089 18.6487V7.65584H63.0833V9.26382C63.5958 8.62332 64.1655 8.148 64.7925 7.83787C65.4263 7.521 66.1409 7.36256 66.9365 7.36256C67.604 7.36256 68.2006 7.47381 68.7264 7.6963C69.2524 7.91877 69.6973 8.24913 70.0614 8.68737C70.3918 9.08516 70.6244 9.57058 70.7592 10.1437C70.9008 10.71 70.9716 11.6404 70.9716 12.9349V18.6487H66.6027V12.9551C66.6027 12.1191 66.4915 11.546 66.269 11.2359C66.0465 10.919 65.6623 10.7605 65.1161 10.7605C64.5633 10.7605 64.1521 10.9426 63.8824 11.3067C63.6126 11.6707 63.4778 12.2269 63.4778 12.9753V18.6487H59.1089Z" fill="#244F9F"/>
<path d="M76.2717 13.0765C76.2717 13.9597 76.4166 14.6171 76.7065 15.0486C76.9964 15.4733 77.4381 15.6857 78.0313 15.6857C78.6583 15.6857 79.1202 15.4767 79.4168 15.0587C79.7202 14.6407 79.8719 13.9867 79.8719 13.0967C79.8719 12.3012 79.7101 11.6843 79.3864 11.246C79.0696 10.8078 78.6178 10.5887 78.0313 10.5887C77.4381 10.5887 76.9964 10.7977 76.7065 11.2157C76.4166 11.627 76.2717 12.2472 76.2717 13.0765ZM72.641 19.832H76.9694C77.0234 20.0949 77.1481 20.2837 77.3436 20.3983C77.5459 20.513 77.8493 20.5703 78.2537 20.5703C78.8943 20.5703 79.3258 20.4287 79.5482 20.1455C79.7775 19.8624 79.8921 19.2387 79.8921 18.2746V17.6779C79.5213 18.0353 79.0797 18.305 78.5673 18.487C78.0616 18.6623 77.4818 18.7499 76.8279 18.7499C75.3446 18.7499 74.1546 18.2442 73.2579 17.2329C72.368 16.215 71.923 14.8632 71.923 13.1776C71.923 11.4045 72.3477 9.99201 73.1973 8.94025C74.0535 7.8885 75.1929 7.36262 76.6155 7.36262C77.411 7.36262 78.1021 7.5042 78.6887 7.78737C79.282 8.06379 79.7943 8.49528 80.2258 9.08184V7.6559H84.0991V17.7993C84.0991 19.7141 83.6306 21.0725 82.6934 21.8749C81.7563 22.6772 80.1753 23.0783 77.9504 23.0783C76.4065 23.0783 75.1727 22.7951 74.2491 22.2288C73.3253 21.6624 72.7894 20.8636 72.641 19.832ZM85.6472 18.6488V7.6559H89.6824V9.65828C89.9722 8.86272 90.3869 8.2829 90.9262 7.91883C91.4723 7.54802 92.1971 7.36262 93.1006 7.36262H93.495V11.7213C93.3331 11.7079 93.1781 11.6977 93.0298 11.691C92.8815 11.6775 92.7399 11.6708 92.605 11.6708C91.7218 11.6708 91.0712 11.8697 90.6532 12.2675C90.2419 12.6652 90.0363 13.2889 90.0363 14.1384V18.6488H85.6472ZM101.687 13.744C101.269 13.9058 100.713 14.0777 100.019 14.2597C98.9265 14.5496 98.3804 14.9373 98.3804 15.4227C98.3804 15.7328 98.4882 15.9756 98.704 16.1509C98.9197 16.3261 99.2265 16.4138 99.6243 16.4138C100.352 16.4138 100.882 16.2452 101.212 15.9082C101.549 15.5711 101.718 15.0351 101.718 14.3002C101.718 14.1451 101.714 14.0305 101.708 13.9563C101.708 13.8754 101.701 13.8046 101.687 13.744ZM102.092 18.6488L101.819 17.597C101.259 18.0892 100.656 18.4533 100.009 18.6893C99.3614 18.9252 98.6332 19.0432 97.8242 19.0432C96.5837 19.0432 95.6229 18.7398 94.942 18.1331C94.2678 17.5196 93.9307 16.6566 93.9307 15.5441C93.9307 14.4586 94.2644 13.6563 94.9318 13.1372C95.5993 12.618 96.8601 12.2405 98.7141 12.0045C98.9501 11.9708 99.267 11.9337 99.6648 11.8933C101.047 11.7449 101.738 11.3876 101.738 10.8213C101.738 10.5044 101.61 10.2752 101.354 10.1336C101.104 9.98527 100.706 9.91111 100.16 9.91111C99.7086 9.91111 99.3614 10.0021 99.1187 10.1842C98.8759 10.3595 98.7344 10.6325 98.6939 11.0033H94.4262C94.4464 9.76952 94.9521 8.83912 95.9431 8.21212C96.9342 7.57837 98.3906 7.26149 100.312 7.26149C101.215 7.26149 102.048 7.34576 102.81 7.51431C103.579 7.68287 104.175 7.90873 104.6 8.19189C105.119 8.54248 105.483 8.94025 105.692 9.38523C105.901 9.82346 106.006 10.4538 106.006 11.2764V17.4048C106.006 17.6071 106.046 17.7892 106.127 17.951C106.208 18.106 106.326 18.2341 106.481 18.3352V18.6488H102.092ZM108.13 18.6488V10.1336H106.765V7.6559H108.13V6.9682C108.13 5.74116 108.434 4.83772 109.04 4.2579C109.654 3.67809 110.605 3.38818 111.892 3.38818H114.34V6.13894C114.286 6.13894 114.208 6.13557 114.107 6.12882C114.006 6.12208 113.932 6.11871 113.885 6.11871C113.352 6.11871 112.981 6.20972 112.772 6.39177C112.563 6.56706 112.459 6.87719 112.459 7.32216C112.459 7.35588 112.462 7.40981 112.469 7.48398C112.475 7.5514 112.479 7.6087 112.479 7.6559H114.34V10.1336H112.479V18.6488H108.13ZM114.937 6.53334V3.38818H119.346V6.53334H114.937ZM114.937 18.6488V7.6559H119.346V18.6488H114.937ZM128.337 14.3609H132.706C132.612 15.8104 132.032 16.9532 130.968 17.7892C129.909 18.6252 128.5 19.0432 126.74 19.0432C124.791 19.0432 123.25 18.5139 122.118 17.4555C120.986 16.397 120.42 14.9575 120.42 13.1372C120.42 11.3168 120.979 9.88414 122.098 8.83912C123.217 7.78737 124.751 7.26149 126.7 7.26149C128.466 7.26149 129.888 7.67612 130.968 8.50539C132.046 9.32792 132.612 10.437 132.666 11.8326H128.297C128.25 11.3135 128.094 10.9292 127.832 10.6797C127.569 10.4302 127.184 10.3055 126.679 10.3055C126.045 10.3055 125.58 10.5347 125.283 10.9932C124.987 11.4449 124.838 12.1596 124.838 13.1372C124.838 14.1283 124.98 14.8531 125.264 15.3115C125.553 15.7699 126.012 15.9992 126.639 15.9992C127.144 15.9992 127.539 15.8609 127.822 15.5845C128.112 15.3081 128.284 14.9002 128.337 14.3609Z" fill="#0BA8D5"/>
<path d="M124.072 21.8435V21.2107H124.737V21.8435H124.072ZM126.929 21.119C126.897 21.3671 126.797 21.5606 126.629 21.6997C126.462 21.8375 126.244 21.9064 125.974 21.9064C125.683 21.9064 125.449 21.8135 125.271 21.6278C125.094 21.4408 125.005 21.1939 125.005 20.887C125.005 20.5562 125.095 20.2955 125.275 20.105C125.455 19.9144 125.699 19.8191 126.008 19.8191C126.277 19.8191 126.493 19.8868 126.656 20.0223C126.82 20.1565 126.912 20.3429 126.933 20.5814H126.287C126.269 20.4903 126.236 20.422 126.188 20.3764C126.14 20.3309 126.079 20.3081 126.003 20.3081C125.893 20.3081 125.809 20.3555 125.751 20.4502C125.694 20.5448 125.665 20.6839 125.665 20.8673C125.665 21.047 125.692 21.1813 125.746 21.27C125.801 21.3575 125.884 21.4012 125.996 21.4012C126.08 21.4012 126.146 21.3779 126.195 21.3311C126.246 21.2844 126.28 21.2136 126.298 21.119H126.929ZM127.735 20.8637C127.735 21.0423 127.768 21.1795 127.834 21.2754C127.9 21.3713 127.993 21.4192 128.114 21.4192C128.237 21.4192 128.331 21.3713 128.397 21.2754C128.464 21.1783 128.497 21.0411 128.497 20.8637C128.497 20.6875 128.464 20.5514 128.397 20.4555C128.331 20.3597 128.237 20.3117 128.114 20.3117C127.992 20.3117 127.898 20.3597 127.832 20.4555C127.767 20.5502 127.735 20.6863 127.735 20.8637ZM127.079 20.8637C127.079 20.5364 127.17 20.2806 127.354 20.096C127.537 19.9114 127.791 19.8191 128.114 19.8191C128.439 19.8191 128.693 19.9114 128.877 20.096C129.061 20.2806 129.153 20.5364 129.153 20.8637C129.153 21.1909 129.061 21.4474 128.877 21.6332C128.693 21.8177 128.439 21.91 128.114 21.91C127.788 21.91 127.534 21.8177 127.352 21.6332C127.17 21.4486 127.079 21.1921 127.079 20.8637ZM129.436 21.8435V19.8892H130.051V20.1571C130.116 20.0504 130.196 19.9713 130.29 19.9198C130.386 19.867 130.501 19.8407 130.634 19.8407C130.775 19.8407 130.892 19.867 130.984 19.9198C131.078 19.9713 131.148 20.0504 131.196 20.1571C131.26 20.0516 131.34 19.9725 131.437 19.9198C131.536 19.867 131.651 19.8407 131.782 19.8407C131.992 19.8407 132.15 19.8988 132.257 20.0151C132.365 20.1313 132.419 20.3039 132.419 20.5329V21.8435H131.793V20.727C131.793 20.5784 131.772 20.4747 131.728 20.416C131.687 20.3561 131.615 20.3261 131.513 20.3261C131.41 20.3261 131.334 20.3645 131.284 20.4412C131.235 20.5179 131.211 20.6365 131.211 20.7971V21.8435H130.644V20.727C130.644 20.5784 130.623 20.4747 130.58 20.416C130.538 20.3561 130.466 20.3261 130.364 20.3261C130.261 20.3261 130.185 20.3645 130.136 20.4412C130.086 20.5179 130.062 20.6365 130.062 20.7971V21.8435H129.436Z" fill="#244F9F"/>
</svg>
